<svg xmlns="http://www.w3.org/2000/svg" width="100.008" height="100" viewBox="0 0 100.008 100"><defs><style>.a{fill:#fff;}</style></defs><g transform="translate(0 -0.012)"><path class="a" d="M95.506,114.206a18.687,18.687,0,1,0,18.688-18.688A18.708,18.708,0,0,0,95.506,114.206Z" transform="translate(-64.19 -64.19)"/><path class="a" d="M115.037,25.348a.82.82,0,0,0-.008-.824A49.976,49.976,0,0,0,72.007.012a49.786,49.786,0,0,0-39.09,18.823.819.819,0,0,0-.07.921L46.924,44.137a.82.82,0,0,0,.71.41.848.848,0,0,0,.111-.008.82.82,0,0,0,.683-.607A24.348,24.348,0,0,1,72.007,25.667c.689,0,1.4.031,2.117.092.023,0,.047,0,.07,0h40.131A.819.819,0,0,0,115.037,25.348Z" transform="translate(-22.003 0)"/><path class="a" d="M57.393,125.15a.818.818,0,0,0-.868-.287A24.35,24.35,0,0,1,27.953,111.72c-.01-.021-.021-.041-.032-.062L7.84,76.879a.819.819,0,0,0-.71-.41h0a.82.82,0,0,0-.71.417,50.017,50.017,0,0,0,36.127,73.966.8.8,0,0,0,.122.009.82.82,0,0,0,.71-.41l14.08-24.388A.82.82,0,0,0,57.393,125.15Z" transform="translate(0 -51.387)"/><path class="a" d="M197.762,95.226h-28.19A.82.82,0,0,0,169,96.631a24.3,24.3,0,0,1,2.965,31.248c-.013.019-.025.038-.037.058l-20.115,34.839a.82.82,0,0,0,.71,1.23h.009a50.027,50.027,0,0,0,45.994-68.26A.82.82,0,0,0,197.762,95.226Z" transform="translate(-101.96 -63.994)"/></g></svg>