<svg xmlns="http://www.w3.org/2000/svg" width="80" height="80" viewBox="0 0 80 80"><defs><style>.a{fill:#f66;}</style></defs><path class="a" d="M40,0A40,40,0,1,0,80,40,40.045,40.045,0,0,0,40,0Zm0,75.676A35.669,35.669,0,1,1,75.676,40,35.561,35.561,0,0,1,40,75.676Z"/><path class="a" d="M71.661,105.258l4.884-4.884,4.884,4.884,3.058-3.058-4.849-4.849L84.487,92.5,81.43,89.445l-4.885,4.884-4.884-4.884L68.6,92.5l4.849,4.848L68.6,102.2Z" transform="translate(-50.061 -65.27)"/><path class="a" d="M171.661,105.258l4.884-4.884,4.884,4.884,3.058-3.058-4.849-4.849,4.849-4.848-3.057-3.058-4.885,4.884-4.884-4.884L168.6,92.5l4.849,4.848L168.6,102.2Z" transform="translate(-123.034 -65.27)"/><path class="a" d="M110.908,190H67.664v4.324H93.07v3.243a8.97,8.97,0,0,0,7.778,8.838,9.284,9.284,0,0,0,1.208.081,8.77,8.77,0,0,0,8.851-8.919V190Zm-13.514,4.324h9.189v3.243a4.595,4.595,0,1,1-9.189,0Z" transform="translate(-49.376 -138.646)"/></svg>