<svg xmlns="http://www.w3.org/2000/svg" width="8" height="6.933" viewBox="0 0 8 6.933"><defs><style>.a{fill:#fff;}</style></defs><path class="a" d="M7.467,4.133V.667A.137.137,0,0,0,7.333.533H.667A.137.137,0,0,0,.533.667V4.133a.137.137,0,0,0,.133.133H7.333A.137.137,0,0,0,7.467,4.133ZM8,.667V5.2a.669.669,0,0,1-.667.667H5.067c0,.354.267.654.267.8a.269.269,0,0,1-.267.267H2.933a.269.269,0,0,1-.267-.267c0-.154.267-.438.267-.8H.667A.669.669,0,0,1,0,5.2V.667A.669.669,0,0,1,.667,0H7.333A.669.669,0,0,1,8,.667Z"/></svg>