<svg xmlns="http://www.w3.org/2000/svg" width="106.462" height="100" viewBox="0 0 106.462 100"><defs><style>.a{fill:#fff;}</style></defs><g transform="translate(0 -9.258)"><path class="a" d="M105.4,42.285a.873.873,0,0,0-.927.5l-1.191,2.637a91.6,91.6,0,0,0-2.4-12.7,24.461,24.461,0,0,0-5.417-9.427.873.873,0,0,0-1.47.8l.926,4.171c-2.227-2.327-5.805-5.666-9.346-7.294-.851-.415-1.717-.8-2.474-1.124a41.847,41.847,0,0,0-63.125,8.773,7.745,7.745,0,0,1-2.346-3.116,32.653,32.653,0,0,1-1.617-5.6.873.873,0,0,0-1.462-.474c-6.41,6.147-5.774,15.73-5.535,17.9a47.205,47.205,0,0,0-5.308,6.994C.892,48.844.04,56.728.005,57.061a.872.872,0,0,0,1.5.691L3.382,55.77c-.2.758-.41,1.623-.6,2.591A57.588,57.588,0,0,0,2.195,69.3a.873.873,0,0,0,1.661.338L4.96,67.3c.814,5.69,3.939,17.8,15.921,28.95a50.068,50.068,0,0,0,33.866,13.009h0a50.86,50.86,0,0,0,33.516-12.7c11.411-9.83,15.662-23.869,17.218-33.915a78.614,78.614,0,0,0,.654-19.6A.871.871,0,0,0,105.4,42.285ZM85.92,42.6c.012.015,1.2,1.566,1.454,5.539a60.675,60.675,0,0,1-.817,10.329l-2.325-2.7a.872.872,0,0,0-1.527.675,42.988,42.988,0,0,1-.533,12.623,18.631,18.631,0,0,1-2.466,6.018l.325-4.4a.873.873,0,0,0-1.665-.424A25.344,25.344,0,0,1,63.26,82.429a16.376,16.376,0,0,1-4.825.716c-5.883,0-11.228-3-14.258-5.11q.391.02.778.02c4.34,0,7.678-1.87,10.361-3.372.7-.395,1.37-.768,2.011-1.084,3.855-1.939,5.647-2.1,7.024-2.1a1.445,1.445,0,0,0,1.464-1.108c.431-1.677-1.586-4.667-4.076-6.038a8.372,8.372,0,0,0-4.156-.984c-2.545,0-5.7.8-10.221,2.027a9.473,9.473,0,0,1-2.435.334,7.565,7.565,0,0,1-5.651-2.464,7.328,7.328,0,0,1-2.1-5.216c.054-.777.358-1.572,2.208-1.572a11.766,11.766,0,0,1,3.482.683.868.868,0,0,0,.308.056h.007a.872.872,0,0,0,.873-.873.905.905,0,0,0-.011-.139L43.8,48.558c.881-.562,2.99-1.929,5.017-3.4,4.9-3.565,5.561-4.928,5.036-5.964-.7-1.41-2.525-1.639-4.644-1.9a20.385,20.385,0,0,1-3.828-.735,10.2,10.2,0,0,1-4.677-3.64,5.236,5.236,0,0,1,.487-3.328c.822-1.444,3.663-3.68,4.689-4.42a.872.872,0,0,0-.416-1.575,18.118,18.118,0,0,0-6.954,1.14,26.219,26.219,0,0,0-7.083,3.743c-.4-.078-1.081-.186-2.212-.3A34.725,34.725,0,0,1,55.311,16.4,34.378,34.378,0,0,1,75.56,22.9l-5.867.981a.873.873,0,0,0-.116,1.694A50.922,50.922,0,0,1,83.3,32.563a16.408,16.408,0,0,1,3.527,3.909A35.109,35.109,0,0,1,89.1,42.889l-1.962-1.524A.874.874,0,0,0,85.92,42.6Z" transform="translate(0)"/></g></svg>